<?xml version="1.0" encoding="UTF-8" standalone="no"?>
<!DOCTYPE svg PUBLIC "-//W3C//DTD SVG 20010904//EN"
              "http://www.w3.org/TR/2001/REC-SVG-20010904/DTD/svg10.dtd">

<svg xmlns="http://www.w3.org/2000/svg"
     width="22.2222in" height="22.2222in"
     viewBox="0 0 2000 2000">
  <path id="Selection"
        fill="none" stroke="black" stroke-width="1"
        d="M 157.00,0.00
           C 157.00,0.00 157.00,544.00 157.00,544.00
             157.00,545.99 156.77,549.81 158.02,551.40
             160.00,553.90 171.61,553.00 175.00,553.00
             175.00,553.00 230.00,553.00 230.00,553.00
             230.00,553.00 471.00,553.00 471.00,553.00
             471.00,553.00 820.00,553.00 820.00,553.00
             820.00,553.00 835.00,554.00 835.00,554.00
             835.00,554.00 1057.00,554.00 1057.00,554.00
             1057.00,554.00 1499.00,554.00 1499.00,554.00
             1499.00,554.00 1499.00,593.00 1499.00,593.00
             1499.00,593.00 1193.00,593.00 1193.00,593.00
             1193.00,593.00 1178.00,592.00 1178.00,592.00
             1178.00,592.00 1047.00,592.00 1047.00,592.00
             1047.00,592.00 787.00,592.00 787.00,592.00
             787.00,592.00 550.00,592.00 550.00,592.00
             550.00,592.00 535.00,591.00 535.00,591.00
             535.00,591.00 427.00,591.00 427.00,591.00
             427.00,591.00 213.00,591.00 213.00,591.00
             213.00,591.00 213.00,618.00 213.00,618.00
             213.00,618.00 214.00,634.00 214.00,634.00
             214.00,634.00 214.00,672.00 214.00,672.00
             214.00,672.00 215.00,688.00 215.00,688.00
             215.00,688.00 215.00,702.00 215.00,702.00
             215.00,702.00 212.00,702.00 212.00,702.00
             212.00,702.00 212.00,709.00 212.00,709.00
             212.00,709.00 399.00,709.00 399.00,709.00
             399.00,709.00 414.00,710.00 414.00,710.00
             414.00,710.00 532.00,710.00 532.00,710.00
             532.00,710.00 792.00,710.00 792.00,710.00
             792.00,710.00 807.00,711.00 807.00,711.00
             807.00,711.00 899.00,711.00 899.00,711.00
             899.00,711.00 1082.00,711.00 1082.00,711.00
             1082.00,711.00 1184.00,711.00 1184.00,711.00
             1184.00,711.00 1199.00,712.00 1199.00,712.00
             1199.00,712.00 1389.00,712.00 1389.00,712.00
             1389.00,712.00 1389.00,798.00 1389.00,798.00
             1389.00,798.00 1390.00,813.00 1390.00,813.00
             1390.00,813.00 1390.00,895.00 1390.00,895.00
             1386.68,894.19 1385.41,894.04 1382.00,894.00
             1382.00,894.00 1373.00,894.00 1373.00,894.00
             1337.85,894.05 1304.49,916.76 1289.26,948.00
             1285.22,956.28 1282.45,964.92 1280.92,974.00
             1280.21,978.20 1280.56,985.62 1277.69,988.37
             1277.69,988.37 1258.00,1000.43 1258.00,1000.43
             1248.41,1006.57 1236.00,1016.00 1228.00,1024.00
             1222.51,1029.49 1215.89,1036.89 1215.10,1045.00
             1214.87,1047.36 1214.90,1051.82 1215.74,1054.00
             1220.58,1066.62 1243.69,1067.13 1255.00,1067.00
             1263.79,1066.89 1280.98,1064.32 1290.00,1062.75
             1293.45,1062.15 1303.21,1059.59 1306.00,1060.48
             1308.22,1061.19 1314.56,1066.79 1317.00,1068.63
             1323.62,1073.60 1330.33,1077.81 1338.00,1080.99
             1375.24,1096.44 1419.88,1088.78 1447.91,1059.00
             1459.37,1046.82 1466.24,1033.91 1470.96,1018.00
             1470.96,1018.00 1473.83,1004.00 1473.83,1004.00
             1474.21,1000.29 1473.48,997.37 1476.31,994.39
             1476.31,994.39 1491.00,985.19 1491.00,985.19
             1502.61,978.07 1522.13,964.41 1530.33,954.00
             1534.65,948.52 1538.65,943.19 1538.96,936.00
             1539.69,919.35 1523.34,916.02 1510.00,916.00
             1495.52,915.98 1486.48,916.18 1472.00,918.42
             1472.00,918.42 1449.00,922.40 1449.00,922.40
             1445.55,921.99 1442.59,918.60 1440.00,916.44
             1436.22,913.28 1430.37,908.88 1426.00,906.71
             1422.38,904.91 1416.54,903.75 1415.33,909.06
             1413.98,915.00 1420.10,917.12 1424.00,919.75
             1424.00,919.75 1430.00,924.26 1430.00,924.26
             1440.31,932.64 1449.08,942.85 1454.69,955.00
             1454.69,955.00 1460.00,968.00 1460.00,968.00
             1453.49,969.86 1447.21,973.84 1441.00,976.69
             1441.00,976.69 1403.00,993.58 1403.00,993.58
             1369.31,1007.71 1335.03,1018.77 1300.00,1029.00
             1295.20,1017.68 1291.15,1006.49 1291.00,994.00
             1290.44,945.98 1327.99,906.90 1376.00,905.04
             1385.86,904.66 1397.77,910.47 1399.25,901.97
             1399.96,897.87 1397.02,898.50 1397.00,888.00
             1397.00,888.00 1397.00,808.00 1397.00,808.00
             1397.00,808.00 1396.00,793.00 1396.00,793.00
             1396.00,793.00 1396.00,705.00 1396.00,705.00
             1396.00,705.00 1208.00,705.00 1208.00,705.00
             1208.00,705.00 1193.00,704.00 1193.00,704.00
             1193.00,704.00 1075.00,704.00 1075.00,704.00
             1075.00,704.00 816.00,704.00 816.00,704.00
             816.00,704.00 801.00,703.00 801.00,703.00
             801.00,703.00 683.00,703.00 683.00,703.00
             683.00,703.00 423.00,703.00 423.00,703.00
             423.00,703.00 408.00,702.00 408.00,702.00
             408.00,702.00 222.00,702.00 222.00,702.00
             222.00,702.00 222.00,680.00 222.00,680.00
             222.00,680.00 221.00,665.00 221.00,665.00
             221.00,665.00 221.00,627.00 221.00,627.00
             221.00,627.00 220.00,612.00 220.00,612.00
             220.00,612.00 220.00,598.00 220.00,598.00
             220.00,598.00 526.00,598.00 526.00,598.00
             526.00,598.00 541.00,599.00 541.00,599.00
             541.00,599.00 672.00,599.00 672.00,599.00
             672.00,599.00 932.00,599.00 932.00,599.00
             932.00,599.00 1169.00,599.00 1169.00,599.00
             1169.00,599.00 1184.00,600.00 1184.00,600.00
             1184.00,600.00 1292.00,600.00 1292.00,600.00
             1292.00,600.00 1506.00,600.00 1506.00,600.00
             1506.00,600.00 1506.00,563.00 1506.00,563.00
             1506.00,563.00 1508.00,547.00 1508.00,547.00
             1508.00,547.00 843.00,547.00 843.00,547.00
             843.00,547.00 828.00,546.00 828.00,546.00
             828.00,546.00 606.00,546.00 606.00,546.00
             606.00,546.00 164.00,546.00 164.00,546.00
             164.00,546.00 164.00,0.00 164.00,0.00
             164.00,0.00 157.00,0.00 157.00,0.00 Z
           M 1280.00,1001.00
           C 1280.36,1003.77 1281.34,1007.00 1279.39,1009.39
             1278.11,1010.95 1272.07,1014.36 1270.00,1015.69
             1264.19,1019.43 1256.60,1024.57 1252.39,1030.00
             1247.48,1036.34 1248.77,1043.07 1257.00,1045.43
             1259.28,1046.09 1262.59,1046.00 1265.00,1046.00
             1265.00,1046.00 1270.00,1046.00 1270.00,1046.00
             1285.58,1045.81 1318.26,1035.92 1334.00,1031.02
             1374.56,1018.42 1414.95,1002.65 1453.00,983.75
             1465.55,977.52 1480.94,969.28 1492.00,960.87
             1496.24,957.64 1503.63,951.53 1504.53,946.00
             1505.51,939.95 1499.06,936.61 1494.00,936.04
             1483.04,934.82 1470.70,937.85 1460.00,940.00
             1460.00,940.00 1456.00,933.00 1456.00,933.00
             1473.27,929.75 1488.25,926.97 1506.00,927.00
             1511.32,927.01 1524.88,927.54 1527.25,933.21
             1529.56,938.74 1522.56,946.46 1518.99,949.96
             1508.04,960.71 1489.34,972.60 1476.00,980.60
             1430.81,1007.70 1362.35,1033.75 1311.00,1046.53
             1295.21,1050.45 1263.87,1056.00 1248.00,1056.00
             1242.57,1056.00 1229.83,1055.18 1227.04,1049.89
             1224.21,1044.55 1231.65,1036.58 1235.09,1033.04
             1245.18,1022.66 1266.96,1007.90 1280.00,1001.00 Z
           M 1493.00,947.00
           C 1487.87,952.08 1476.07,959.66 1469.00,961.00
             1469.00,961.00 1466.00,950.00 1466.00,950.00
             1466.00,950.00 1493.00,947.00 1493.00,947.00 Z
           M 1462.00,1002.00
           C 1461.57,1011.39 1458.37,1020.63 1454.24,1029.00
             1435.93,1066.14 1396.10,1084.66 1356.00,1074.87
             1344.43,1072.05 1328.70,1065.24 1321.00,1056.00
             1321.00,1056.00 1357.00,1044.98 1357.00,1044.98
             1357.00,1044.98 1406.00,1026.94 1406.00,1026.94
             1406.00,1026.94 1445.00,1009.69 1445.00,1009.69
             1445.00,1009.69 1462.00,1002.00 1462.00,1002.00 Z
           M 1284.00,1021.00
           C 1284.00,1021.00 1288.00,1032.00 1288.00,1032.00
             1288.00,1032.00 1261.00,1037.00 1261.00,1037.00
             1265.94,1030.72 1276.65,1024.28 1284.00,1021.00 Z" />
</svg>
